<svg width="50" height="26" viewBox="0 0 50 26" fill="none" xmlns="http://www.w3.org/2000/svg">
<path d="M0.0880001 22.888L2.552 22.568V3.88L0.216 3.432V1.224H5.144C5.54933 1.224 5.98667 1.21333 6.456 1.192C6.94667 1.17067 7.32 1.14933 7.576 1.128C8.728 1.04266 9.70933 0.999998 10.52 0.999998C12.8027 0.999998 14.616 1.224 15.96 1.672C17.304 2.09867 18.2747 2.78133 18.872 3.72C19.4907 4.63733 19.8 5.85333 19.8 7.368C19.8 8.81867 19.416 10.1733 18.648 11.432C17.88 12.6907 16.7493 13.5547 15.256 14.024C16.2373 14.3867 17.0587 15.0693 17.72 16.072C18.4027 17.0533 19.1067 18.312 19.832 19.848C20.2587 20.744 20.6 21.416 20.856 21.864C21.112 22.2907 21.3787 22.536 21.656 22.6L22.584 22.888V25H16.504C16.184 25 15.8533 24.6587 15.512 23.976C15.1707 23.2933 14.7333 22.2267 14.2 20.776C13.5387 19.0053 12.9627 17.64 12.472 16.68C12.0027 15.6987 11.48 15.1013 10.904 14.888H8.024V22.568L10.872 22.888V25H0.0880001V22.888ZM10.488 12.808C11.5973 12.808 12.4613 12.3813 13.08 11.528C13.6987 10.6533 14.008 9.34133 14.008 7.592C14.008 6.056 13.6987 4.936 13.08 4.232C12.4827 3.50667 11.4693 3.144 10.04 3.144C9.272 3.144 8.6 3.19733 8.024 3.304V12.712C8.30133 12.776 8.76 12.808 9.4 12.808C10.04 12.808 10.4027 12.808 10.488 12.808ZM32.0383 25.352C30.8649 25.352 29.7769 25.256 28.7743 25.064C27.7929 24.872 26.7583 24.616 25.6703 24.296C24.9663 24.0827 24.4543 23.9653 24.1343 23.944L24.4223 17.96H27.3983L28.1983 22.056C28.4329 22.3333 28.8596 22.5787 29.4783 22.792C30.1183 23.0053 30.8756 23.112 31.7503 23.112C33.0516 23.112 34.0223 22.824 34.6623 22.248C35.3236 21.672 35.6543 20.8827 35.6543 19.88C35.6543 19.176 35.4409 18.568 35.0143 18.056C34.6089 17.5227 34.0329 17.0427 33.2863 16.616C32.5609 16.168 31.5583 15.656 30.2783 15.08C28.5929 14.312 27.1636 13.3413 25.9903 12.168C24.8383 10.9733 24.2623 9.40533 24.2623 7.464C24.2623 6.26933 24.5716 5.18133 25.1903 4.2C25.8089 3.21867 26.7476 2.42933 28.0063 1.832C29.2649 1.23467 30.8329 0.935999 32.7103 0.935999C33.8409 0.935999 34.8223 1.01067 35.6543 1.16C36.5076 1.30933 37.4143 1.512 38.3743 1.768C38.8863 1.93867 39.2809 2.03467 39.5583 2.056L39.3663 7.752H36.4543L35.7183 3.816C35.5689 3.624 35.2276 3.45333 34.6943 3.304C34.1823 3.13333 33.6063 3.048 32.9663 3.048C31.7929 3.048 30.9076 3.32533 30.3103 3.88C29.7343 4.43467 29.4463 5.14933 29.4463 6.024C29.4463 6.792 29.6916 7.464 30.1823 8.04C30.6729 8.616 31.2596 9.10667 31.9423 9.512C32.6463 9.896 33.7129 10.44 35.1423 11.144C36.2729 11.6987 37.2543 12.264 38.0863 12.84C38.9396 13.3947 39.6649 14.12 40.2623 15.016C40.8596 15.912 41.1583 16.9573 41.1583 18.152C41.1583 19.3253 40.8703 20.456 40.2943 21.544C39.7396 22.632 38.7796 23.5387 37.4143 24.264C36.0489 24.9893 34.2569 25.352 32.0383 25.352ZM46.5783 25.256C45.8529 25.256 45.2129 25 44.6583 24.488C44.1249 23.976 43.8583 23.3467 43.8583 22.6C43.8583 21.7467 44.1676 21.0533 44.7863 20.52C45.4049 19.9653 46.1729 19.688 47.0903 19.688C47.9223 19.688 48.5943 19.9547 49.1063 20.488C49.6183 21.0213 49.8743 21.6507 49.8743 22.376C49.8743 23.272 49.5756 23.976 48.9783 24.488C48.3809 25 47.5809 25.256 46.5783 25.256Z" fill="white"/>
</svg>
